<?xml version="1.0" standalone="yes"?>
<svg xmlns="http://www.w3.org/2000/svg" width="512" height="512">
<path style="fill:#0000; stroke:none;" d="M0 0L0 512L512 512L512 0L0 0z"/>
<path style="fill:#a26b61; stroke:none;" d="M240 200C251.612 149.808 293.642 121.139 335 97C330.3 80.5576 319.122 65.0422 308.385 52C297.865 39.2216 285.236 27.8068 272 17.8951C267.96 14.8698 261.308 8.55554 256 8.55554C246.747 8.55554 232.502 23.3496 226 29.1698C203.265 49.5217 184.436 73.9359 174.344 103C171.63 110.817 166.102 123.514 168.322 131.895C169.587 136.672 177.163 138.875 181 141.204C190.277 146.837 198.53 154.074 205.91 162C212.457 169.03 218.491 176.849 223.575 185C228.464 192.839 229.745 199.964 240 200z"/>
<path style="fill:#e84a1d; stroke:none;" d="M234 22L235 23L234 22M283 27L284 28L283 27M293 36L294 37L293 36M294 37L295 38L294 37M299 42L300 43L299 42M327 80L328 81L327 80z"/>
<path style="fill:#93a23d; stroke:none;" d="M240 200L312 200C321.226 200 335.331 202.664 343.985 199.397C351.724 196.475 358.763 186.351 366 181.698C382.454 171.121 404.392 162.56 424 161C412.282 136.08 370.818 137.355 349 143C355.104 130.118 359.044 117.248 360.089 103C360.333 99.6672 362.916 91.458 359.397 89.1211C356.756 87.3672 351.6 90.1173 349 91.0031C339.556 94.2202 330.884 98.7741 322 103.248C286.522 121.112 246.131 158.483 240 200z"/>
<path style="fill:#a26b61; stroke:none;" d="M360 88L361 89L360 88M353 89L354 90L353 89z"/>
<path style="fill:#e84a1d; stroke:none;" d="M176 97L177 98L176 97z"/>
<path style="fill:#93a23d; stroke:none;" d="M136 128L146 160C123.254 157.125 105.076 160.897 87 175.921C81.2675 180.685 74.4668 185.744 72 193C97.8989 193 119.561 201.014 144 208L144 200L232 200C216.047 161.683 178.767 128 136 128z"/>
<path style="fill:#a26b61; stroke:none;" d="M350 139L351 140L350 139z"/>
<path style="fill:#feba24; stroke:none;" d="M371 139L372 140L371 139z"/>
<path style="fill:#a26b61; stroke:none;" d="M355 141L356 142L355 141z"/>
<path style="fill:#feba24; stroke:none;" d="M404 145L405 146L404 145M142 150L143 151L142 150z"/>
<path style="fill:#a26b61; stroke:none;" d="M417 153L418 154L417 153z"/>
<path style="fill:#feba24; stroke:none;" d="M85 177L86 178L85 177M72 190L73 191L72 190z"/>
<path style="fill:#a26b61; stroke:none;" d="M351 192L352 193L351 192M350 193L351 194L350 193M349 194L350 195L349 194z"/>
<path style="fill:#feba24; stroke:none;" d="M144 200L144 220C155.669 220 168.451 218.509 180 220.144C184.293 220.752 187.525 223.912 192 223.912C197.068 223.912 200.905 220.231 206 220.019C236.881 218.735 268.089 220 299 220C315.971 220 344.362 223.576 348 200L144 200z"/>
<path style="fill:#e84a1d; stroke:none;" d="M348 200C341.303 223.86 314.866 220 296 220C265.754 220 235.217 218.762 205 220.019C200.258 220.217 196.625 223.782 192 223.782C187.98 223.782 184.912 220.698 181 220.144C169.132 218.464 155.991 220 144 220C146.047 247.154 187.028 240 205 240L310 240C321.463 240 342.72 244.112 353 238.972C369.602 230.671 368 215.561 368 200L348 200z"/>
<path style="fill:#a26b61; stroke:none;" d="M137 205L138 206L137 205z"/>
<path style="fill:#feba24; stroke:none;" d="M183 464L183 465L164 488L260 488C268.066 488 287.416 491.518 293.106 484.581C298.708 477.752 288.491 469.278 285 464C297.998 464 316.644 467.446 329 463.436C338.351 460.401 347.645 449.578 355 443.271C378.006 423.543 412.351 392.344 415.826 360C419.053 329.974 402.262 301.301 385.116 278C376.804 266.705 365.812 247.434 353 241.028C346.799 237.927 335.82 240 329 240L274 240L193 240C183.729 240 167.357 236.849 159 241.028C146.463 247.296 135.809 265.985 127.63 277C110.168 300.516 92.9036 329.566 96.1736 360C97.5561 372.867 105.693 385.704 113.001 396C131.019 421.386 156.47 447.423 183 464z"/>
<path style="fill:#a26b61; stroke:none;" d="M173.044 272.746C163.679 276.423 169.517 290.96 178.956 287.254C188.321 283.577 182.483 269.04 173.044 272.746M213.044 272.746C203.679 276.423 209.517 290.96 218.956 287.254C228.321 283.577 222.483 269.04 213.044 272.746M253.044 272.746C243.679 276.423 249.517 290.96 258.956 287.254C268.321 283.577 262.483 269.04 253.044 272.746M293.044 272.746C283.679 276.423 289.517 290.96 298.956 287.254C308.321 283.577 302.483 269.04 293.044 272.746M333.044 272.746C323.679 276.423 329.517 290.96 338.956 287.254C348.321 283.577 342.483 269.04 333.044 272.746z"/>
<path style="fill:#e84a1d; stroke:none;" d="M248 352L248 368L233 368C226.567 368 206.493 372.633 219.228 382.258C225.919 387.315 243.865 384.042 252 383.999C255.34 383.982 259.016 384.116 261.566 381.566C267.095 376.038 264 359.328 264 352L280 352L280 367C280 373.433 284.633 393.507 294.258 380.772C299.315 374.081 296.042 356.135 295.999 348C295.982 344.66 296.116 340.984 293.566 338.434C288.038 332.905 271.328 336 264 336L264 320L279 320C285.433 320 305.507 315.367 292.772 305.742C286.081 300.685 268.135 303.958 260 304.001C256.66 304.018 252.984 303.884 250.434 306.434C244.905 311.962 248 328.672 248 336L232 336L232 321C232 314.567 227.367 294.493 217.742 307.228C212.685 313.919 215.958 331.865 216.001 340C216.018 343.34 215.884 347.016 218.434 349.566C223.962 355.095 240.672 352 248 352z"/>
<path style="fill:#a26b61; stroke:none;" d="M173.044 400.746C163.679 404.423 169.517 418.96 178.956 415.254C188.321 411.577 182.483 397.04 173.044 400.746M213.044 400.746C203.679 404.423 209.517 418.96 218.956 415.254C228.321 411.577 222.483 397.04 213.044 400.746M253.044 400.746C243.679 404.423 249.517 418.96 258.956 415.254C268.321 411.577 262.483 397.04 253.044 400.746M293.044 400.746C283.679 404.423 289.517 418.96 298.956 415.254C308.321 411.577 302.483 397.04 293.044 400.746M333.044 400.746C323.679 404.423 329.517 418.96 338.956 415.254C348.321 411.577 342.483 397.04 333.044 400.746z"/>
<path style="fill:#e84a1d; stroke:none;" d="M285 464C287.301 469.162 296.227 475.861 294.087 481.956C290.47 492.26 265.469 488 257 488L193 488C184.868 488 172.655 485.715 165.015 488.603C159.482 490.695 154.304 498.831 152 504L360 504C355.296 493.445 345.21 484.012 338 475C335.228 471.535 332.278 466.269 327.961 464.603C316.638 460.236 297.149 464 285 464z"/>
</svg>
